<svg width="77" height="87" viewBox="0 0 77 87" fill="none" xmlns="http://www.w3.org/2000/svg">
<path d="M71.7542 67.0317C69.9665 67.9088 69.2414 70.0765 70.1165 71.8558C70.1165 71.8558 70.1165 71.8683 70.129 71.8683C67.8287 73.798 65.2784 75.477 62.478 76.8553C43.5505 86.1902 20.6599 78.3715 11.3462 59.4009C2.03241 40.4303 9.83345 17.4877 28.761 8.15279C31.5614 6.77448 34.4618 5.77208 37.3746 5.12051C37.3871 5.14557 37.3996 5.17063 37.4121 5.19569C38.2873 6.98749 40.4501 7.71424 42.2253 6.83713C44.013 5.96003 44.7506 3.79232 43.863 2.01305C42.9879 0.221244 40.8251 -0.505504 39.0499 0.371603C37.9247 0.922927 37.2246 1.98798 37.0746 3.14075C32.374 3.64196 27.6858 4.97015 23.1977 7.17545C2.61999 17.3123 -5.84365 42.2597 4.27021 62.8843C14.3966 83.5088 39.2749 91.9917 59.8527 81.8548C64.3283 79.6495 68.2288 76.7426 71.4917 73.3344C72.5043 73.9483 73.8045 74.0611 74.9422 73.4973C76.7299 72.6201 77.455 70.4524 76.5799 68.6732C75.6923 66.8939 73.5295 66.1546 71.7542 67.0317Z" fill="#79A429"/>
<path d="M47.8523 71.5035C46.4271 70.9146 44.8019 71.5787 44.2018 73.0071V73.0197C41.914 72.6563 39.6262 72.0298 37.3884 71.09C22.2864 64.7874 15.1479 47.3956 21.4488 32.2593C27.7371 17.1229 45.0769 9.96821 60.179 16.2708C62.4168 17.2106 64.4795 18.3884 66.3423 19.7667C66.3298 19.7918 66.3173 19.8043 66.3173 19.8294C65.7297 21.2578 66.3923 22.8993 67.8175 23.4882C69.2427 24.0771 70.8804 23.413 71.468 21.9846C72.0556 20.5561 71.393 18.9147 69.9678 18.3258C69.0677 17.9499 68.0925 18.0877 67.3424 18.5889C64.6421 16.0954 61.4791 14.028 57.9037 12.5369C41.489 5.68291 22.6364 13.4516 15.798 29.9036C8.95959 46.3556 16.7106 65.251 33.1253 72.105C36.7008 73.5961 40.3763 74.398 44.0393 74.5609C44.2018 75.4631 44.8019 76.2775 45.7145 76.6659C47.1397 77.2549 48.7774 76.5908 49.365 75.1623C49.9526 73.7339 49.2775 72.0925 47.8523 71.5035Z" fill="#2088D2"/>
<path d="M69.4638 51.0188C68.8263 53.2617 67.8761 55.254 66.5885 57.0082C65.3008 58.7624 63.7131 60.2911 61.8128 61.6068C59.9126 62.9224 57.9373 63.8998 55.8745 64.5263C53.8117 65.1528 51.6615 65.4786 49.4237 65.4786C49.3236 65.4786 49.2111 65.4786 49.0986 65.4786C48.9736 65.4786 48.8736 65.4786 48.7736 65.4786C48.7236 65.4786 48.6611 65.4786 48.586 65.4786C48.511 65.4786 48.4485 65.4786 48.3985 65.4786C48.3485 65.4284 48.2985 65.4034 48.2485 65.4034C48.1985 65.4034 48.1485 65.4034 48.0985 65.4034C46.8358 65.3533 45.5856 65.1904 44.348 64.8897C43.1103 64.6015 41.8852 64.213 40.6725 63.7244C39.4598 63.1856 38.3222 62.5841 37.2845 61.895C36.2344 61.2183 35.2843 60.4289 34.4092 59.5518C33.3465 58.5244 32.3839 57.4092 31.5338 56.1938C30.6837 54.9783 29.9961 53.6877 29.4585 52.322C28.9209 50.9562 28.5209 49.5653 28.2583 48.162C27.9833 46.7461 27.8583 45.2926 27.8583 43.7764C27.8583 40.8068 28.3958 38.0627 29.4585 35.5567C30.5211 33.0507 32.1088 30.7702 34.1966 28.7278C36.3344 26.6854 38.6597 25.1317 41.1601 24.0917C43.6604 23.0517 46.3983 22.5254 49.3612 22.5254C51.599 22.5254 53.7492 22.8637 55.812 23.5529C57.8748 24.2295 59.8751 25.257 61.8253 26.6227C63.7631 27.9885 65.3758 29.5548 66.6385 31.334C67.9011 33.1133 68.8513 35.0931 69.4763 37.2858L58.5499 37.1355C58.0123 36.3085 57.4247 35.5818 56.7621 34.9427C56.1121 34.3162 55.387 33.7774 54.6119 33.3389C53.8367 32.9003 52.9991 32.5745 52.099 32.349C51.1989 32.136 50.2363 32.0232 49.2236 32.0232C47.4734 32.0232 45.9107 32.3114 44.523 32.9003C43.1353 33.4892 41.8852 34.3413 40.7725 35.4565C39.6974 36.6218 38.8973 37.8998 38.3722 39.2907C37.8346 40.6815 37.5721 42.2227 37.5721 43.9268C37.5721 45.7311 37.8471 47.36 38.4097 48.8261C38.9723 50.2921 39.8349 51.5827 40.9975 52.6979C42.1102 53.8632 43.3979 54.7277 44.8606 55.2916C46.3232 55.8554 47.9485 56.1311 49.7487 56.1311C50.6238 56.1311 51.4864 56.0183 52.3365 55.8053C53.1867 55.5798 53.9993 55.254 54.7744 54.8155C55.5995 54.3769 56.3121 53.8506 56.9247 53.2492C57.5372 52.6352 58.0748 51.9461 58.5624 51.1692V51.0188H69.4638V51.0188Z" fill="#212121"/>
<path d="M39.0357 0.38366C37.9106 0.934984 37.2105 2.00005 37.0605 3.15282C32.3598 3.65402 27.6717 4.98221 23.1836 7.1875C10.1319 13.628 1.95576 26.0202 0.305542 39.4776C2.53084 40.5426 4.90616 41.52 7.41899 42.372C7.469 28.2882 15.2951 14.7807 28.7469 8.13979C31.5472 6.76148 34.4476 5.75907 37.3605 5.10751C37.373 5.13257 37.3855 5.15763 37.398 5.18269C38.2731 6.97449 40.4359 7.70124 42.2112 6.82413C43.9989 5.94703 44.7365 3.77932 43.8489 2.00004C42.9738 0.24583 40.8235 -0.493447 39.0357 0.38366Z" fill="#C4D800"/>
<path d="M69.9654 18.3258C69.0652 17.9499 68.0901 18.0877 67.34 18.5889C64.6397 16.0954 61.4767 14.028 57.9013 12.5369C41.4866 5.68291 22.634 13.4516 15.7956 29.9036C13.8578 34.5773 13.0952 39.439 13.3703 44.1754C15.2705 44.6641 17.2208 45.0775 19.2211 45.4409C18.9585 41.0679 19.6586 36.5821 21.4464 32.2593C27.7347 17.1229 45.0745 9.96821 60.1766 16.2708C62.4144 17.2106 64.4771 18.3884 66.3399 19.7667C66.3274 19.7918 66.3149 19.8043 66.3149 19.8294C65.7273 21.2578 66.3899 22.8993 67.8151 23.4882C69.2403 24.0771 70.878 23.413 71.4656 21.9846C72.0531 20.5561 71.3906 18.9147 69.9654 18.3258Z" fill="#7AC8F6"/>
</svg>
