<svg width="114" height="41" viewBox="0 0 114 41" fill="none" xmlns="http://www.w3.org/2000/svg">
<path d="M34.1549 31.907C33.3039 32.3245 32.9588 33.3563 33.3754 34.2032C33.3754 34.2032 33.3754 34.2092 33.3813 34.2092C32.2864 35.1277 31.0724 35.9269 29.7394 36.583C20.73 41.0264 9.83408 37.3047 5.40075 28.2747C0.967423 19.2448 4.68071 8.32412 13.6902 3.88072C15.0232 3.22464 16.4037 2.7475 17.7903 2.43736C17.7962 2.44928 17.8022 2.46121 17.8081 2.47314C18.2247 3.32604 19.2542 3.67197 20.0992 3.25446C20.9501 2.83696 21.3012 1.80514 20.8787 0.958207C20.4622 0.105312 19.4327 -0.240619 18.5877 0.176882C18.0521 0.439312 17.7189 0.946277 17.6475 1.49499C15.41 1.73357 13.1784 2.36578 11.0421 3.4155C1.24711 8.24062 -2.78157 20.1156 2.03261 29.9328C6.85274 39.7501 18.6948 43.7879 28.4898 38.9628C30.6201 37.913 32.4768 36.5293 34.0299 34.907C34.512 35.1993 35.1308 35.253 35.6724 34.9846C36.5233 34.5671 36.8685 33.5352 36.4519 32.6883C36.0294 31.8414 34.9999 31.4895 34.1549 31.907Z" fill="#79A429"/>
<path d="M22.7778 34.0357C22.0994 33.7554 21.3258 34.0715 21.0402 34.7514V34.7574C19.9512 34.5844 18.8622 34.2862 17.797 33.8389C10.6085 30.8388 7.21058 22.5604 10.2098 15.3555C13.203 8.1506 21.4567 4.74498 28.6453 7.74502C29.7105 8.19235 30.6924 8.75299 31.579 9.40907C31.5731 9.421 31.5671 9.42696 31.5671 9.43889C31.2874 10.1188 31.6028 10.9001 32.2812 11.1805C32.9596 11.4608 33.7391 11.1447 34.0188 10.4647C34.2985 9.78482 33.9831 9.0035 33.3047 8.72317C32.8763 8.54424 32.4121 8.60985 32.0551 8.84842C30.7697 7.66153 29.2642 6.67741 27.5622 5.96766C19.7489 2.70518 10.7751 6.40306 7.52002 14.2342C4.26495 22.0653 7.95443 31.0595 15.7678 34.322C17.4697 35.0317 19.2193 35.4135 20.9628 35.491C21.0402 35.9204 21.3258 36.3081 21.7602 36.493C22.4386 36.7733 23.2182 36.4572 23.4979 35.7773C23.7775 35.0973 23.4562 34.316 22.7778 34.0357Z" fill="#2088D2"/>
<path d="M33.0648 24.2851C32.7613 25.3527 32.3091 26.3011 31.6961 27.1361C31.0832 27.9711 30.3274 28.6987 29.4229 29.325C28.5184 29.9512 27.5782 30.4164 26.5963 30.7146C25.6144 31.0129 24.5909 31.1679 23.5257 31.1679C23.4781 31.1679 23.4245 31.1679 23.371 31.1679C23.3115 31.1679 23.2639 31.1679 23.2163 31.1679C23.1925 31.1679 23.1627 31.1679 23.127 31.1679C23.0913 31.1679 23.0615 31.1679 23.0377 31.1679C23.0139 31.1441 22.9901 31.1321 22.9663 31.1321C22.9425 31.1321 22.9187 31.1321 22.8949 31.1321C22.2939 31.1083 21.6988 31.0308 21.1097 30.8876C20.5206 30.7504 19.9374 30.5655 19.3602 30.3329C18.7829 30.0765 18.2414 29.7902 17.7475 29.4621C17.2476 29.1401 16.7954 28.7643 16.3788 28.3468C15.873 27.8577 15.4148 27.3269 15.0101 26.7484C14.6055 26.1698 14.2782 25.5555 14.0223 24.9054C13.7664 24.2553 13.576 23.5933 13.451 22.9253C13.3201 22.2513 13.2606 21.5594 13.2606 20.8378C13.2606 19.4242 13.5165 18.118 14.0223 16.9252C14.5281 15.7323 15.2839 14.6468 16.2777 13.6746C17.2952 12.7024 18.4021 11.9629 19.5922 11.4678C20.7824 10.9728 22.0856 10.7223 23.496 10.7223C24.5611 10.7223 25.5847 10.8833 26.5666 11.2114C27.5484 11.5334 28.5006 12.0225 29.4289 12.6726C30.3513 13.3227 31.1189 14.0683 31.7199 14.9152C32.321 15.7621 32.7732 16.7045 33.0708 17.7482L27.8698 17.6767C27.6139 17.283 27.3342 16.9371 27.0188 16.6329C26.7094 16.3347 26.3642 16.0782 25.9953 15.8695C25.6263 15.6607 25.2276 15.5057 24.7992 15.3983C24.3707 15.2969 23.9125 15.2432 23.4305 15.2432C22.5974 15.2432 21.8535 15.3804 21.193 15.6607C20.5325 15.9411 19.9374 16.3466 19.4078 16.8775C18.896 17.4321 18.5152 18.0405 18.2652 18.7025C18.0093 19.3646 17.8844 20.0982 17.8844 20.9093C17.8844 21.7682 18.0153 22.5435 18.2831 23.2414C18.5509 23.9392 18.9615 24.5535 19.5149 25.0843C20.0445 25.639 20.6574 26.0506 21.3537 26.3189C22.0499 26.5873 22.8235 26.7186 23.6804 26.7186C24.097 26.7186 24.5076 26.6649 24.9122 26.5635C25.3169 26.4561 25.7037 26.3011 26.0726 26.0923C26.4654 25.8836 26.8046 25.6331 27.0962 25.3468C27.3878 25.0545 27.6436 24.7265 27.8757 24.3567V24.2851H33.0648Z" fill="white"/>
<path d="M38.2727 22.967C38.4572 23.5694 38.7071 24.1002 39.0166 24.5476C39.3319 25.0008 39.7128 25.3885 40.1769 25.7106C40.6411 26.0565 41.135 26.313 41.6706 26.474C42.2002 26.6351 42.7596 26.7186 43.3368 26.7186C43.7772 26.7186 44.2056 26.6828 44.6222 26.6172C45.0387 26.5456 45.4315 26.4323 45.8004 26.2712C46.1932 26.1341 46.5383 25.9611 46.8418 25.7523C47.1394 25.5436 47.4071 25.311 47.6392 25.0545L52.739 24.9829C52.4355 25.8657 51.9952 26.6768 51.4061 27.4164C50.8169 28.156 50.079 28.8299 49.2043 29.4323C48.3236 30.0109 47.4131 30.4463 46.461 30.7385C45.5148 31.0308 44.527 31.1739 43.5094 31.1739C42.099 31.1739 40.7958 30.9353 39.6057 30.4582C38.4155 29.981 37.3206 29.2594 36.3268 28.2872C35.333 27.315 34.5892 26.2295 34.1072 25.0366C33.6192 23.8438 33.3812 22.5376 33.3812 21.124C33.3812 19.6866 33.6251 18.3566 34.1072 17.1399C34.5951 15.9232 35.333 14.8019 36.3268 13.782C37.2968 12.7621 38.3917 11.9987 39.6057 11.4857C40.8196 10.9788 42.1467 10.7223 43.5808 10.7223C44.9435 10.7223 46.211 10.9788 47.3774 11.4857C48.5437 11.9927 49.603 12.7621 50.5492 13.782C51.4953 14.778 52.2154 15.8695 52.6974 17.0504C53.1853 18.2313 53.4234 19.4958 53.4234 20.8378C53.4234 20.9988 53.4174 21.1539 53.4055 21.3089C53.3936 21.458 53.3758 21.6071 53.352 21.7443C53.3282 21.8815 53.3103 22.0246 53.2984 22.1618C53.2865 22.299 53.2687 22.4422 53.2449 22.5793C53.221 22.627 53.2032 22.6688 53.1913 22.6986C53.1794 22.7344 53.1734 22.7762 53.1734 22.8179C53.1734 22.8418 53.1734 22.8716 53.1734 22.9074C53.1734 22.9432 53.1734 22.9849 53.1734 23.0267V22.9551H38.2727V22.967ZM48.7877 18.8636C48.6032 18.3327 48.3414 17.8377 48.0082 17.3844C47.6749 16.9311 47.2643 16.5435 46.7764 16.2214C46.2884 15.8993 45.7826 15.6548 45.247 15.4937C44.7174 15.3327 44.1461 15.2492 43.5451 15.2492C43.5213 15.2492 43.4975 15.2492 43.4737 15.2492C43.4499 15.2492 43.4261 15.2492 43.4023 15.2492C43.3785 15.2492 43.3547 15.2492 43.3309 15.2492C43.3071 15.2492 43.2833 15.2492 43.2595 15.2492C42.706 15.2731 42.1645 15.3804 41.6468 15.5772C41.1291 15.7741 40.6233 16.0365 40.1353 16.3586C39.6473 16.6806 39.2427 17.0623 38.9213 17.4858C38.594 17.9152 38.356 18.3984 38.1953 18.9292V18.8576H48.7877V18.8636Z" fill="white"/>
<path d="M54.3383 4.84692H58.9561V30.5471H54.3383V4.84692Z" fill="white"/>
<path d="M64.6392 22.967C64.8237 23.5694 65.0736 24.1002 65.383 24.5476C65.6925 25.0008 66.0793 25.3885 66.5434 25.7106C67.0076 26.0565 67.5015 26.313 68.0371 26.474C68.5667 26.6351 69.1261 26.7186 69.7033 26.7186C70.1437 26.7186 70.5721 26.6828 70.9887 26.6172C71.4052 26.5456 71.798 26.4323 72.1669 26.2712C72.5597 26.1341 72.9048 25.9611 73.2083 25.7523C73.5118 25.5436 73.7736 25.311 74.0057 25.0545L79.1055 24.9829C78.802 25.8657 78.3617 26.6768 77.7666 27.4164C77.1775 28.156 76.4396 28.8299 75.5648 29.4323C74.6841 30.0109 73.7736 30.4463 72.8215 30.7385C71.8694 31.0308 70.8875 31.1739 69.8699 31.1739C68.4596 31.1739 67.1564 30.9353 65.9662 30.4582C64.7761 29.981 63.6811 29.2594 62.6873 28.2872C61.6936 27.315 60.9497 26.2295 60.4677 25.0366C59.9797 23.8438 59.7417 22.5376 59.7417 21.124C59.7417 19.6866 59.9857 18.3566 60.4677 17.1399C60.9557 15.9232 61.6936 14.8019 62.6873 13.782C63.6573 12.7621 64.7523 11.9987 65.9662 11.4857C67.1802 10.9788 68.5072 10.7223 69.9413 10.7223C71.3041 10.7223 72.5716 10.9788 73.7439 11.4857C74.9102 11.9927 75.9695 12.7621 76.9156 13.782C77.8618 14.778 78.5819 15.8695 79.0639 17.0504C79.5518 18.2313 79.7899 19.4958 79.7899 20.8378C79.7899 20.9988 79.7839 21.1539 79.772 21.3089C79.7601 21.458 79.7423 21.6071 79.7185 21.7443C79.6947 21.8815 79.6768 22.0246 79.6649 22.1618C79.653 22.299 79.6351 22.4422 79.6113 22.5793C79.5875 22.627 79.5697 22.6688 79.5578 22.6986C79.5459 22.7344 79.5399 22.7762 79.5399 22.8179C79.5399 22.8418 79.5399 22.8716 79.5399 22.9074C79.5399 22.9432 79.5399 22.9849 79.5399 23.0267V22.9551H64.6392V22.967ZM75.1542 18.8636C74.9697 18.3327 74.7079 17.8377 74.3747 17.3844C74.0414 16.9311 73.6308 16.5435 73.1429 16.2214C72.6549 15.8993 72.1491 15.6548 71.6195 15.4937C71.0898 15.3327 70.5186 15.2492 69.9175 15.2492C69.8937 15.2492 69.8699 15.2492 69.8461 15.2492C69.8223 15.2492 69.7985 15.2492 69.7747 15.2492C69.7509 15.2492 69.7271 15.2492 69.7033 15.2492C69.6795 15.2492 69.6557 15.2492 69.6319 15.2492C69.0785 15.2731 68.537 15.3804 68.0192 15.5772C67.4956 15.7741 66.9957 16.0365 66.5077 16.3586C66.0198 16.6806 65.6151 17.0623 65.2938 17.4858C64.9665 17.9152 64.7285 18.3984 64.5678 18.9292V18.8576H75.1542V18.8636Z" fill="white"/>
<path d="M81.3974 15.3859H79.1421V11.2824H81.3974V4.84692H86.0152V11.2824H88.7883V15.3859H86.0152V30.5471H81.3974V15.3859Z" fill="white"/>
<path d="M93.09 22.967C93.2745 23.5694 93.5244 24.1002 93.8338 24.5476C94.1433 25.0008 94.536 25.3885 94.9942 25.7106C95.4584 26.0565 95.9523 26.313 96.4879 26.474C97.0175 26.6351 97.5769 26.7186 98.1541 26.7186C98.5945 26.7186 99.0229 26.6828 99.4395 26.6172C99.856 26.5456 100.249 26.4323 100.618 26.2712C101.01 26.1341 101.356 25.9611 101.659 25.7523C101.957 25.5436 102.224 25.311 102.457 25.0545L107.556 24.9829C107.253 25.8657 106.812 26.6768 106.217 27.4164C105.628 28.156 104.89 28.8299 104.016 29.4323C103.135 30.0109 102.224 30.4463 101.272 30.7385C100.326 31.0308 99.3383 31.1739 98.3207 31.1739C96.9104 31.1739 95.6072 30.9353 94.417 30.4582C93.2269 29.981 92.1319 29.2594 91.1381 28.2872C90.1444 27.315 89.4065 26.2295 88.9185 25.0366C88.4305 23.8438 88.1925 22.5376 88.1925 21.124C88.1925 19.6866 88.4365 18.3566 88.9185 17.1399C89.4065 15.9232 90.1444 14.8019 91.1381 13.782C92.1081 12.7621 93.2031 11.9987 94.417 11.4857C95.631 10.9788 96.9521 10.7223 98.3921 10.7223C99.7549 10.7223 101.022 10.9788 102.189 11.4857C103.355 11.9927 104.414 12.7621 105.361 13.782C106.307 14.778 107.027 15.8695 107.515 17.0504C108.003 18.2313 108.241 19.4958 108.241 20.8378C108.241 20.9988 108.235 21.1539 108.223 21.3089C108.211 21.458 108.193 21.6071 108.169 21.7443C108.145 21.8815 108.128 22.0246 108.116 22.1618C108.104 22.299 108.086 22.4422 108.062 22.5793C108.038 22.627 108.021 22.6688 108.009 22.6986C107.997 22.7344 107.991 22.7762 107.991 22.8179C107.991 22.8418 107.991 22.8716 107.991 22.9074C107.991 22.9432 107.991 22.9849 107.991 23.0267V22.9551H93.09V22.967ZM103.605 18.8636C103.421 18.3327 103.159 17.8377 102.825 17.3844C102.492 16.9311 102.082 16.5435 101.594 16.2214C101.106 15.8993 100.6 15.6548 100.064 15.4937C99.5347 15.3327 98.9634 15.2492 98.3624 15.2492C98.3386 15.2492 98.3148 15.2492 98.291 15.2492C98.2672 15.2492 98.2434 15.2492 98.2196 15.2492C98.1958 15.2492 98.172 15.2492 98.1482 15.2492C98.1244 15.2492 98.1006 15.2492 98.0767 15.2492C97.5233 15.2731 96.9818 15.3804 96.4641 15.5772C95.9464 15.7741 95.4406 16.0365 94.9526 16.3586C94.4646 16.6806 94.06 17.0623 93.7386 17.4858C93.4113 17.9152 93.1733 18.3984 93.0067 18.9292V18.8576H103.605V18.8636Z" fill="white"/>
<path d="M109.152 4.84692H113.764V30.5471H109.152V4.84692Z" fill="white"/>
<path d="M18.581 0.18295C18.0454 0.445379 17.7121 0.952347 17.6407 1.50106C15.4032 1.73964 13.1717 2.37185 11.0354 3.42157C4.82276 6.48722 0.930949 12.3859 0.145447 18.7916C1.20469 19.2986 2.33533 19.7638 3.53144 20.1693C3.55524 13.4655 7.28043 7.03594 13.6835 3.87486C15.0164 3.21878 16.397 2.74164 17.7836 2.43149C17.7895 2.44342 17.7955 2.45535 17.8014 2.46728C18.218 3.32018 19.2474 3.66611 20.0925 3.24861C20.9434 2.8311 21.2945 1.79928 20.872 0.952346C20.4555 0.117343 19.4319 -0.234552 18.581 0.18295Z" fill="#C4D800"/>
<path d="M33.3035 8.72317C32.8751 8.54424 32.4109 8.60985 32.0539 8.84842C30.7685 7.66153 29.263 6.67741 27.561 5.96766C19.7477 2.70518 10.7739 6.40306 7.51883 14.2342C6.59646 16.4589 6.23346 18.773 6.36438 21.0275C7.26889 21.2601 8.19722 21.457 9.14934 21.6299C9.02437 19.5484 9.35762 17.4132 10.2086 15.3555C13.2018 8.1506 21.4556 4.74498 28.6441 7.74502C29.7093 8.19235 30.6912 8.75299 31.5778 9.40907C31.5719 9.42099 31.5659 9.42696 31.5659 9.43889C31.2862 10.1188 31.6016 10.9001 32.28 11.1805C32.9584 11.4608 33.738 11.1447 34.0176 10.4647C34.2973 9.78482 33.9819 9.00349 33.3035 8.72317Z" fill="#7AC8F6"/>
</svg>
